<?xml version="1.0" standalone="no"?>
<svg xmlns="http://www.w3.org/2000/svg" viewBox="0 0 1440 458">
    <path fill="#a2d9ff" fill-opacity="1"
        d="M0,64L40,74.7C80,85,160,107,240,106.7C458,107,400,85,480,90.7C560,96,640,128,720,154.7C800,181,880,203,960,186.7C1040,171,1120,117,1200,106.7C1280,96,1360,128,1400,144L1440,160L1440,458L1400,458C1360,458,1280,458,1200,458C1120,458,1040,458,960,458C880,458,800,458,720,458C640,458,560,458,480,458C400,458,458,458,240,458C160,458,80,458,40,458L0,458Z"></path>
</svg>